<svg width="96" height="96" xmlns="http://www.w3.org/2000/svg" xmlns:xlink="http://www.w3.org/1999/xlink" overflow="hidden"><defs><clipPath id="clip0"><rect x="66" y="25" width="96" height="96"/></clipPath></defs><g clip-path="url(#clip0)" transform="translate(-66 -25)"><path d="M114 35C93 35 76 52 76 73 76 94 93 111 114 111 135 111 152 94 152 73 152 52 135 35 114 35ZM80 73C80 64.1 83.4 56.1 89 50 89.9 50.5 90.8 51.3 91 52L91 58.3C91 58.7 91.1 59.2 91.4 59.5L98 68 98.5 67.5C98.8 67.2 98.9 66.7 98.7 66.3L97.5 64.3C97 63.5 97.8 62.5 98.7 62.8 99 62.9 99.2 63.1 99.3 63.3L102.6 69.8C103 70.5 103.6 71.1 104.3 71.3L108.7 72.8C109 72.9 109.2 73.1 109.3 73.3L109.6 73.8C109.9 74.5 110.6 74.9 111.4 74.9L112.6 74.9C112.9 74.9 113.2 75.1 113.4 75.3L114.7 77.2C115 77.6 115.4 77.9 115.9 78L118 78.5C118.6 78.6 118.9 79.3 118.7 79.8 118.7 79.8 117.1 81.4 117.1 83.7 117.1 90.3 123.1 92.2 123.1 93.7 123.1 97.8 122.5 103.5 122.2 105.7 119.6 106.3 116.9 106.7 114.1 106.7 95.3 107 80 91.7 80 73ZM126.8 104.5C129 102.6 132.7 99.4 134 98 135.7 96.1 136 93 136 93 136 93 143 91.1 143 86 143 82.5 136 81 136 81 134.8 77.1 128.9 75 124 75 122.9 75 119 77 119 77L117 76 117 73C117 72.4 116.6 72 116 72L114 72 114 69C114 68.4 113.6 68 113 68L112 68 110.9 68.7C109.9 69.4 108.5 69 108 67.9 108 67.9 107 66.5 107 65.9 107 61.6 112 61.9 112 61.9L114.2 61.9C114.7 61.9 115.1 62.2 115.2 62.7L115.8 65.2C115.9 65.6 116.3 66 116.8 66L117.2 66C117.7 66 118.1 65.7 118.2 65.2L118.9 61.5C119 61.2 119.1 60.9 119.3 60.6L122.1 57.1C122.7 56.4 123.5 56 124.4 56L127 56C127.6 56 128 55.6 128 55L128 54 127.7 53.7C127.1 53.1 127.5 52 128.4 52L129 52C129.6 52 130 52.4 130 53 130 53.6 130.4 54 131 54L132 54 132.6 51.4C132.8 50.5 132.4 49.7 131.7 49.2L123.2 44.1C123.1 44 122.9 44 122.7 44L121 44C119.9 44 119 44.9 119 46L119 47C119 47.6 118.6 48 118 48L117 48 116 47 113 47C112.4 47 112 46.6 112 46L112 43.5C112 43.2 112.1 42.9 112.4 42.7L118.8 40 119.8 41.7C120 41.9 120.2 42 120.5 42L123 42C123.6 42 124 41.6 124 41L124 40.5C137.9 44.8 148 57.7 148 73 148 87.2 139.2 99.4 126.8 104.5Z"/><path d="M126.3 68.8 121.5 67.2C121.1 67.1 120.8 67.1 120.4 67.2L117 68C116.7 68.2 116.6 68.6 117 69L121.6 69C121.9 69 122.1 69 122.3 69.1L125.8 70.5C126.4 70.7 127 70.3 127 69.7 127 69.3 126.7 68.9 126.3 68.8Z"/></g></svg>